<svg xmlns="http://www.w3.org/2000/svg"
	xmlns:xlink="http://www.w3.org/1999/xlink" viewBox="0 0 126.76 91.32">
	<defs>
		<style>.cls-1{fill:url(#linear-gradient);}.cls-2,.cls-3{fill-rule:evenodd;}.cls-2{fill:url(#linear-gradient-2);}.cls-3{fill:url(#linear-gradient-3);}.cls-4{fill:#1d71b8;}</style>
		<linearGradient id="linear-gradient" x1="78.8" y1="51.32" x2="-0.55" y2="17.43" gradientUnits="userSpaceOnUse">
			<stop offset="0" stop-color="#b3ff2a"/>
			<stop offset="1" stop-color="#3aaa35"/>
		</linearGradient>
		<linearGradient id="linear-gradient-2" x1="2.17" y1="13.13" x2="64.37" y2="75.33" gradientUnits="userSpaceOnUse">
			<stop offset="0" stop-color="#89fd25"/>
			<stop offset="1" stop-color="#009640"/>
		</linearGradient>
		<linearGradient id="linear-gradient-3" x1="68.79" y1="55.26" x2="100.9" y2="23.15" gradientUnits="userSpaceOnUse">
			<stop offset="0" stop-color="#a5ff2a"/>
			<stop offset="1" stop-color="#3aaa35"/>
		</linearGradient>
	</defs>
	<g id="Layer_2" data-name="Layer 2">
		<g id="meta">
			<path class="cls-1" d="M23,42.36c-11.58-7.81-2.52-16.08,7.89-8.68,17.79,12.66,33.89-.09,45.72-11.89,7-7,14.42-4.21,6.38,9.8-5,8.62-7.54,25.08-6.24,30.28,1.46,5.85,6.59,4.44,9.58.92,16.16-20.88,16.37-44.54,4.44-55.87-17.9-17-41.17,2.68-41.17,2.68S26.29-10.08,8.39,6.92-.11,68.67,49.56,90.15C53.62,65.19,38.73,53,23,42.36ZM51.21,13.1a10,10,0,1,1-10,10A10,10,0,0,1,51.21,13.1Z"/>
			<path class="cls-2" d="M19.52,39.41l.07.07.09.11h0A18.4,18.4,0,0,0,23,42.36C38.73,53,53.62,65.19,49.56,90.15-.11,68.67-9.51,23.92,8.39,6.92A24.06,24.06,0,0,1,29.19.28c-27.93,4.6-16,32-9.67,39.13"/>
			<path class="cls-3" d="M98.87,24.31c1.31,11.46-2.58,25.44-12.58,38.36-3,3.52-8.11,4.93-9.58-.92C75.41,56.55,78,40.09,83,31.47c6.66-11.6,2.73-15.5-2.8-12.53,0,0,14.14-11.13,18.72,5.37"/>
			<path class="cls-4" d="M58.37,67.85a1.34,1.34,0,0,1,1.2.73q.45.87,1,2c.53,1.07,1.07,2.23,1.63,3.48s1.13,2.53,1.69,3.84l.32.75a1.34,1.34,0,0,0,2.48,0l.32-.75q.84-2,1.68-3.84c.57-1.25,1.11-2.41,1.63-3.48.36-.74.7-1.4,1-2a1.34,1.34,0,0,1,1.2-.73h2.72A1.35,1.35,0,0,1,76.57,69q.24,1.83.45,4,.28,2.83.5,5.91c.14,2,.28,4.1.4,6.15.09,1.54.17,3,.24,4.4a1.35,1.35,0,0,1-1.35,1.41H74.5a1.34,1.34,0,0,1-1.35-1.3q-.09-2.8-.23-6c-.11-2.63-.27-5.29-.49-8-.4.93-.85,2-1.34,3.08s-1,2.26-1.44,3.39-.94,2.2-1.39,3.23c-.29.68-.55,1.28-.78,1.83a1.33,1.33,0,0,1-1.24.81H64.41a1.33,1.33,0,0,1-1.24-.81l-.79-1.83L61,82.06c-.48-1.13-1-2.26-1.45-3.39l-1.33-3.08c-.22,2.67-.39,5.33-.5,8q-.13,3.2-.22,6a1.35,1.35,0,0,1-1.35,1.3H53.84a1.35,1.35,0,0,1-1.36-1.41c.08-1.4.16-2.86.25-4.4.12-2.05.25-4.11.4-6.15s.31-4,.49-5.91c.15-1.42.3-2.74.46-4a1.34,1.34,0,0,1,1.34-1.17Z"/>
			<path class="cls-4" d="M80.66,82.26a10.61,10.61,0,0,1,.71-4.07,8.66,8.66,0,0,1,1.88-2.9,7.67,7.67,0,0,1,2.67-1.76,8.3,8.3,0,0,1,3.1-.6,7.71,7.71,0,0,1,5.87,2.27q2.16,2.28,2.16,6.69c0,.29,0,.6,0,1s0,.64-.07.91H88a1.35,1.35,0,0,0-.85,2.41h0a5.72,5.72,0,0,0,3.39.9,14,14,0,0,0,2.67-.25l.73-.15a1.34,1.34,0,0,1,1.66,1.08L96,90.22a5.81,5.81,0,0,1-1.06.4,14.12,14.12,0,0,1-1.48.35c-.54.1-1.12.18-1.74.25a16.56,16.56,0,0,1-1.86.1,10.93,10.93,0,0,1-4.1-.7,7.85,7.85,0,0,1-2.88-1.91,7.48,7.48,0,0,1-1.7-2.87A11.48,11.48,0,0,1,80.66,82.26Zm11.61-1.89a5,5,0,0,0-.21-1.23,3.1,3.1,0,0,0-.57-1.06,2.94,2.94,0,0,0-1-.77,3.13,3.13,0,0,0-1.44-.3,3.28,3.28,0,0,0-1.43.29,2.87,2.87,0,0,0-1,.74,3.37,3.37,0,0,0-.61,1.08,7.64,7.64,0,0,0-.32,1.25Z"/>
			<path class="cls-4" d="M100.81,68.86l2.24-.36a1.36,1.36,0,0,1,1.57,1.34V72A1.35,1.35,0,0,0,106,73.4h3.24a1.35,1.35,0,0,1,1.35,1.35v1.41a1.35,1.35,0,0,1-1.35,1.35H106a1.35,1.35,0,0,0-1.35,1.35v4.79a4.84,4.84,0,0,0,.55,2.49,2.34,2.34,0,0,0,2.2.93,9.55,9.55,0,0,0,1.65-.15l.2,0a1.35,1.35,0,0,1,1.6,1.08l.23,1.26a1.35,1.35,0,0,1-.92,1.53c-.28.09-.56.16-.86.24a12.06,12.06,0,0,1-2.69.26,8.72,8.72,0,0,1-3.35-.55,5.2,5.2,0,0,1-2.13-1.52A5.7,5.7,0,0,1,100,86.8a13.94,13.94,0,0,1-.32-3.08V70.2A1.37,1.37,0,0,1,100.81,68.86Z"/>
			<path class="cls-4" d="M119.16,72.93a11.52,11.52,0,0,1,3.65.5,5.7,5.7,0,0,1,2.34,1.43,5.28,5.28,0,0,1,1.24,2.25,11.31,11.31,0,0,1,.37,3v9.18a1.35,1.35,0,0,1-1.1,1.33c-.54.1-1.15.21-1.86.32a28.27,28.27,0,0,1-4.58.32,14.46,14.46,0,0,1-3.07-.3,6.69,6.69,0,0,1-2.37-1,4.53,4.53,0,0,1-1.53-1.77,6.23,6.23,0,0,1-.53-2.69,5.09,5.09,0,0,1,.62-2.59A4.66,4.66,0,0,1,114,81.2a7.21,7.21,0,0,1,2.35-.92,13.18,13.18,0,0,1,2.76-.28c.64,0,1.21,0,1.71.08a7.85,7.85,0,0,1,1.21.22v-.47a2.72,2.72,0,0,0-.76-2,3.71,3.71,0,0,0-2.66-.76,17.17,17.17,0,0,0-2.49.18l-.78.14a1.36,1.36,0,0,1-1.58-1.13l-.39-2.48c.29-.09.65-.18,1.08-.28s.9-.19,1.41-.27,1-.14,1.61-.2S118.58,72.93,119.16,72.93Zm.39,14.47c.49,0,1,0,1.4,0a10.11,10.11,0,0,0,1.06-.1V83.52a7,7,0,0,0-.9-.13,8.63,8.63,0,0,0-1.09-.07,10.72,10.72,0,0,0-1.31.08,3.42,3.42,0,0,0-1.08.32,1.8,1.8,0,0,0-.73.63,1.72,1.72,0,0,0-.27,1,1.69,1.69,0,0,0,.78,1.61A4.31,4.31,0,0,0,119.55,87.4Z"/>
		</g>
	</g>
</svg>